{
    "asset": {
        "version": "2.0",
        "generator": "Open Asset Import Library (assimp v5.4.0)"
    },
    "extensionsUsed": [
        "KHR_materials_volume",
        "FB_ngon_encoding"
    ],
    "accessors": [
        {
            "bufferView": 0,
            "byteOffset": 0,
            "componentType": 5126,
            "count": 28242,
            "type": "VEC3",
            "max": [
                0.11458560079336166,
                0.18210268020629883,
                0.5139753818511963
            ],
            "min": [
                -0.10018107295036316,
                -0.1818339079618454,
                -0.5075660347938538
            ]
        },
        {
            "bufferView": 1,
            "byteOffset": 0,
            "componentType": 5126,
            "count": 28242,
            "type": "VEC3",
            "max": [
                0.9999998211860657,
                0.9999991655349731,
                0.9999873638153076
            ],
            "min": [
                -0.9999987483024597,
                -0.9999986886978149,
                -0.9999492764472961
            ]
        },
        {
            "bufferView": 2,
            "byteOffset": 0,
            "componentType": 5126,
            "count": 28242,
            "type": "VEC2",
            "max": [
                0.9704569578170776,
                0.9999160170555115
            ],
            "min": [
                0.0003909217193722725,
                0.0000889897346496582
            ]
        },
        {
            "bufferView": 3,
            "byteOffset": 0,
            "componentType": 5125,
            "count": 150000,
            "type": "SCALAR",
            "max": [
                28241
            ],
            "min": [
                0
            ]
        }
    ],
    "buffers": [
        {
            "byteLength": 1503744,
            "uri": "model_0.bin"
        }
    ],
    "bufferViews": [
        {
            "buffer": 0,
            "byteOffset": 0,
            "byteLength": 338904,
            "target": 34962
        },
        {
            "buffer": 0,
            "byteOffset": 338904,
            "byteLength": 338904,
            "target": 34962
        },
        {
            "buffer": 0,
            "byteOffset": 677808,
            "byteLength": 225936,
            "target": 34962
        },
        {
            "buffer": 0,
            "byteOffset": 903744,
            "byteLength": 600000,
            "target": 34963
        }
    ],
    "images": [
        {
            "uri": "textures/image_0.png"
        }
    ],
    "materials": [
        {
            "name": "Mat_1",
            "pbrMetallicRoughness": {
                "baseColorTexture": {
                    "index": 0
                },
                "metallicFactor": 0.0,
                "roughnessFactor": 0.8999999761581421
            }
        }
    ],
    "meshes": [
        {
            "name": "meshes[0]",
            "primitives": [
                {
                    "mode": 4,
                    "material": 0,
                    "indices": 3,
                    "attributes": {
                        "POSITION": 0,
                        "NORMAL": 1,
                        "TEXCOORD_0": 2
                    }
                }
            ]
        }
    ],
    "nodes": [
        {
            "name": "model",
            "children": [
                1
            ]
        },
        {
            "name": "geometry_0",
            "mesh": 0,
            "extras": {
                "name": "geometry_0"
            }
        }
    ],
    "samplers": [
        {
            "magFilter": 9729,
            "minFilter": 9987
        }
    ],
    "scenes": [
        {
            "nodes": [
                0
            ]
        }
    ],
    "textures": [
        {
            "source": 0,
            "sampler": 0
        }
    ],
    "scene": 0
}