{
    "asset": {
        "version": "2.0",
        "generator": "Open Asset Import Library (assimp v5.2.cf7d3637)"
    },
    "extensionsUsed": [
        "KHR_materials_volume",
        "FB_ngon_encoding"
    ],
    "accessors": [
        {
            "bufferView": 0,
            "byteOffset": 0,
            "componentType": 5126,
            "count": 149994,
            "type": "VEC3",
            "max": [
                0.3269931674003601,
                0.35785311460494997,
                0.3264177441596985
            ],
            "min": [
                -0.3298015892505646,
                -0.35431140661239626,
                -0.3274673521518707
            ]
        },
        {
            "bufferView": 1,
            "byteOffset": 0,
            "componentType": 5126,
            "count": 149994,
            "type": "VEC3",
            "max": [
                0.9999818205833435,
                0.9999859929084778,
                0.9999502301216126
            ],
            "min": [
                -0.9998553395271301,
                -0.9999841451644898,
                -0.9999809265136719
            ]
        },
        {
            "bufferView": 2,
            "byteOffset": 0,
            "componentType": 5126,
            "count": 149994,
            "type": "VEC2",
            "max": [
                0.9989400506019592,
                0.9999633431434631
            ],
            "min": [
                0.0000810772180557251,
                0.000015795230865478517
            ]
        },
        {
            "bufferView": 3,
            "byteOffset": 0,
            "componentType": 5125,
            "count": 149994,
            "type": "SCALAR",
            "max": [
                149993
            ],
            "min": [
                0
            ]
        }
    ],
    "buffers": [
        {
            "byteLength": 5399784,
            "uri": "result.bin"
        }
    ],
    "bufferViews": [
        {
            "buffer": 0,
            "byteOffset": 0,
            "byteLength": 1799928,
            "target": 34962
        },
        {
            "buffer": 0,
            "byteOffset": 1799928,
            "byteLength": 1799928,
            "target": 34962
        },
        {
            "buffer": 0,
            "byteOffset": 3599856,
            "byteLength": 1199952,
            "target": 34962
        },
        {
            "buffer": 0,
            "byteOffset": 4799808,
            "byteLength": 599976,
            "target": 34963
        }
    ],
    "images": [
        {
            "uri": "data:image/jpeg;base64,"
        }
    ],
    "materials": [
        {
            "name": "material",
            "pbrMetallicRoughness": {
                "baseColorTexture": {
                    "index": 0
                },
                "metallicFactor": 0.0,
                "roughnessFactor": 0.8999999761581421
            }
        },
        {
            "name": "material"
        }
    ],
    "meshes": [
        {
            "name": "geometry_0",
            "primitives": [
                {
                    "mode": 4,
                    "material": 0,
                    "indices": 3,
                    "attributes": {
                        "POSITION": 0,
                        "NORMAL": 1,
                        "TEXCOORD_0": 2
                    }
                }
            ]
        }
    ],
    "nodes": [
        {
            "name": "geometry_0",
            "mesh": 0
        }
    ],
    "samplers": [
        {}
    ],
    "scenes": [
        {
            "nodes": [
                0
            ]
        }
    ],
    "textures": [
        {
            "source": 0,
            "sampler": 0
        }
    ],
    "scene": 0
}